:FULLY-SPECIFIED
:FORCE-ALL-JOINTS-BE-3DOF
:DEGREES
136
root 7.82523 16.5411 -26.2806 -10.6869 9.13918 5.43855
lfemur -5.32456 13.0269 -21.7662
ltibia 35.2661 0 0
lfoot -17.6689 -10.9563 0
ltoes 29.0663 0 0
rfemur -100.398 -26.1562 59.7356
rtibia 86.0576 0 0
rfoot 5.11789 19.1204 0
rtoes -26.5125 0 0
lowerback 17.1135 -3.03253 -9.04059
upperback 5.68174 -5.5336 -1.8578
thorax -2.7784 -2.78266 4.13227
lowerneck -12.6112 -0.598884 -0.170932
upperneck 0.683598 -0.916473 3.11866
head 2.43235 -0.347499 0.985241
lclavicle 9.79725e-15 1.2779e-15 0
lhumerus -41.3771 -21.6827 90.2233
lradius 53.453 0 0
lwrist 17.2301 0 0
lhand 9.33271 6.64963 0
lfingers 7.12502 0 0
lthumb 34.4873 33.2734 0
rclavicle 9.79725e-15 1.2779e-15 0
rhumerus -43.8858 -25.2216 -57.265
rradius 80.1656 0 0
rwrist -35.7108 0 0
rhand -15.8344 -28.2748 0
rfingers 7.12502 0 0
rthumb 10.3428 -57.269 0
137
root 7.78365 16.5237 -26.2765 -10.3376 10.1482 5.20976
lfemur -6.06485 13.4206 -21.4242
ltibia 35.7465 0 0
lfoot -17.7858 -11.8768 0
ltoes 29.3325 0 0
rfemur -100.803 -26.1765 58.5949
rtibia 89.9955 0 0
rfoot 11.5523 18.497 0
rtoes -18.6565 0 0
lowerback 17.0198 -3.35622 -8.93168
upperback 5.57504 -5.93803 -1.91716
thorax -2.81091 -2.97564 4.07267
lowerneck -12.5115 -0.724277 -0.329176
upperneck 0.600729 -1.06833 3.37519
head 2.39425 -0.416751 1.08736
lclavicle 1.51431e-14 3.01017e-15 0
lhumerus -40.8422 -22.6901 90.2744
lradius 52.8581 0 0
lwrist 16.9263 0 0
lhand 10.2954 7.0626 0
lfingers 7.12502 0 0
lthumb 35.3993 33.4629 0
rclavicle 1.51431e-14 3.01017e-15 0
rhumerus -44.7201 -25.6135 -57.9682
rradius 81.3037 0 0
rwrist -34.8895 0 0
rhand -21.4264 -31.6155 0
rfingers 7.12502 0 0
rthumb 4.94963 -60.6725 0
138
root 7.74207 16.5064 -26.2725 -9.98825 11.1572 4.98098
lfemur -6.80515 13.8142 -21.0821
ltibia 36.2269 0 0
lfoot -17.9028 -12.7974 0
ltoes 29.5986 0 0
rfemur -101.208 -26.1968 57.4543
rtibia 93.9333 0 0
rfoot 17.9868 17.8736 0
rtoes -10.8004 0 0
lowerback 16.9261 -3.67991 -8.82278
upperback 5.46834 -6.34246 -1.97652
thorax -2.84341 -3.16862 4.01308
lowerneck -12.4118 -0.84967 -0.48742
upperneck 0.51786 -1.22018 3.63172
head 2.35616 -0.486003 1.18947
lclavicle 2.0489e-14 4.74243e-15 0
lhumerus -40.3072 -23.6976 90.3256
lradius 52.2631 0 0
lwrist 16.6226 0 0
lhand 11.258 7.47557 0
lfingers 7.12502 0 0
lthumb 36.3113 33.6524 0
rclavicle 2.0489e-14 4.74243e-15 0
rhumerus -45.5544 -26.0053 -58.6714
rradius 82.4417 0 0
rwrist -34.0683 0 0
rhand -27.0183 -34.9562 0
rfingers 7.12502 0 0
rthumb -0.443529 -64.076 0
139
root 7.70049 16.489 -26.2684 -9.63894 12.1662 4.75219
lfemur -7.54544 14.2079 -20.7401
ltibia 36.7073 0 0
lfoot -18.0197 -13.7179 0
ltoes 29.8648 0 0
rfemur -101.613 -26.2171 56.3136
rtibia 97.8712 0 0
rfoot 24.4212 17.2502 0
rtoes -2.94439 0 0
lowerback 16.8324 -4.0036 -8.71387
upperback 5.36164 -6.74689 -2.03588
thorax -2.87592 -3.3616 3.95348
lowerneck -12.3121 -0.975063 -0.645664
upperneck 0.434991 -1.37204 3.88825
head 2.31806 -0.555255 1.29159
lclavicle 2.58349e-14 6.4747e-15 0
lhumerus -39.7723 -24.705 90.3767
lradius 51.6682 0 0
lwrist 16.3188 0 0
lhand 12.2207 7.88854 0
lfingers 7.12502 0 0
lthumb 37.2233 33.8419 0
rclavicle 2.58349e-14 6.4747e-15 0
rhumerus -46.3887 -26.3972 -59.3746
rradius 83.5798 0 0
rwrist -33.247 0 0
rhand -32.6102 -38.2969 0
rfingers 7.12502 0 0
rthumb -5.83669 -67.4795 0
140
root 7.6589 16.4717 -26.2644 -9.28962 13.1752 4.52341
lfemur -8.28574 14.6015 -20.398
ltibia 37.1877 0 0
lfoot -18.1366 -14.6385 0
ltoes 30.1309 0 0
rfemur -102.018 -26.2373 55.1729
rtibia 101.809 0 0
rfoot 30.8557 16.6269 0
rtoes 4.91166 0 0
lowerback 16.7387 -4.3273 -8.60496
upperback 5.25495 -7.15131 -2.09523
thorax -2.90842 -3.55459 3.89388
lowerneck -12.2125 -1.10046 -0.803907
upperneck 0.352122 -1.52389 4.14478
head 2.27996 -0.624506 1.3937
lclavicle 3.11808e-14 8.20696e-15 0
lhumerus -39.2374 -25.7125 90.4279
lradius 51.0732 0 0
lwrist 16.015 0 0
lhand 13.1833 8.3015 0
lfingers 7.12502 0 0
lthumb 38.1352 34.0315 0
rclavicle 3.11808e-14 8.20696e-15 0
rhumerus -47.2229 -26.789 -60.0778
rradius 84.7178 0 0
rwrist -32.4258 0 0
rhand -38.2022 -41.6377 0
rfingers 7.12502 0 0
rthumb -11.2298 -70.883 0
141
root 7.61732 16.4543 -26.2603 -8.94031 14.1842 4.29462
lfemur -9.02603 14.9952 -20.056
ltibia 37.6681 0 0
lfoot -18.2535 -15.559 0
ltoes 30.3971 0 0
rfemur -102.423 -26.2576 54.0322
rtibia 105.747 0 0
rfoot 37.2901 16.0035 0
rtoes 12.7677 0 0
lowerback 16.645 -4.65099 -8.49605
upperback 5.14825 -7.55574 -2.15459
thorax -2.94093 -3.74757 3.83428
lowerneck -12.1128 -1.22585 -0.962151
upperneck 0.269253 -1.67575 4.40131
head 2.24186 -0.693758 1.49582
lclavicle 3.65267e-14 9.93923e-15 0
lhumerus -38.7025 -26.7199 90.479
lradius 50.4783 0 0
lwrist 15.7112 0 0
lhand 14.146 8.71447 0
lfingers 7.12502 0 0
lthumb 39.0472 34.221 0
rclavicle 3.65267e-14 9.93923e-15 0
rhumerus -48.0572 -27.1809 -60.781
rradius 85.8559 0 0
rwrist -31.6045 0 0
rhand -43.7941 -44.9784 0
rfingers 7.12502 0 0
rthumb -16.623 -74.2865 0
142
root 7.56602 16.4507 -26.2513 -8.36737 14.9943 4.01739
lfemur -9.86288 15.7276 -19.7449
ltibia 37.8133 0 0
lfoot -18.263 -13.4132 0
ltoes 26.5798 0 0
rfemur -100.194 -26.9162 51.423
rtibia 107.461 0 0
rfoot 35.0866 16.8955 0
rtoes 7.18983 0 0
lowerback 16.226 -4.75824 -8.41084
upperback 4.96168 -7.65252 -2.06264
thorax -2.9022 -3.79356 3.86354
lowerneck -12.047 -1.44654 -1.01749
upperneck 0.217828 -1.9626 4.48036
head 2.22461 -0.83555 1.51523
lclavicle 4.43574e-14 8.86011e-15 0
lhumerus -38.2014 -27.5307 90.923
lradius 49.8865 0 0
lwrist 14.7285 0 0
lhand 15.5148 9.20053 0
lfingers 7.12502 0 0
lthumb 40.3248 34.2372 0
rclavicle 4.43574e-14 8.86011e-15 0
rhumerus -48.9475 -26.0876 -62.1205
rradius 86.6709 0 0
rwrist -27.9853 0 0
rhand -43.1268 -45.7116 0
rfingers 7.12502 0 0
rthumb -15.9801 -126.494 0
143
root 7.51471 16.447 -26.2423 -7.79444 15.8044 3.74017
lfemur -10.6997 16.4599 -19.4339
ltibia 37.9586 0 0
lfoot -18.2724 -11.2675 0
ltoes 22.7625 0 0
rfemur -97.9647 -27.5749 48.8139
rtibia 109.176 0 0
rfoot 32.8832 17.7876 0
rtoes 1.61196 0 0
lowerback 15.807 -4.86548 -8.32563
upperback 4.7751 -7.7493 -1.9707
thorax -2.86348 -3.83956 3.89279
lowerneck -11.9811 -1.66724 -1.07282
upperneck 0.166402 -2.24945 4.55941
head 2.20737 -0.977341 1.53465
lclavicle 5.21881e-14 7.781e-15 0
lhumerus -37.7003 -28.3416 91.3671
lradius 49.2946 0 0
lwrist 13.7457 0 0
lhand 16.8837 9.68659 0
lfingers 7.12502 0 0
lthumb 41.6025 34.2533 0
rclavicle 5.21881e-14 7.781e-15 0
rhumerus -49.8378 -24.9943 -63.46
rradius 87.486 0 0
rwrist -24.3661 0 0
rhand -42.4596 -46.4447 0
rfingers 7.12502 0 0
rthumb -15.3371 -178.702 0
144
root 7.46341 16.4434 -26.2333 -7.2215 16.6145 3.46294
lfemur -11.5366 17.1923 -19.1228
ltibia 38.1038 0 0
lfoot -18.2819 -9.12169 0
ltoes 18.9452 0 0
rfemur -95.7356 -28.2335 46.2047
rtibia 110.89 0 0
rfoot 30.6797 18.6796 0
rtoes -3.96591 0 0
lowerback 15.388 -4.97273 -8.24042
upperback 4.58853 -7.84608 -1.87875
thorax -2.82475 -3.88555 3.92205
lowerneck -11.9153 -1.88793 -1.12815
upperneck 0.114977 -2.5363 4.63846
head 2.19012 -1.11913 1.55406
lclavicle 6.00188e-14 6.70188e-15 0
lhumerus -37.1992 -29.1524 91.8111
lradius 48.7028 0 0
lwrist 12.763 0 0
lhand 18.2525 10.1727 0
lfingers 7.12502 0 0
lthumb 42.8801 34.2695 0
rclavicle 6.00188e-14 6.70188e-15 0
rhumerus -50.7281 -23.901 -64.7995
rradius 88.301 0 0
rwrist -20.747 0 0
rhand -41.7923 -47.1779 0
rfingers 7.12502 0 0
rthumb -14.6942 -230.909 0
145
root 7.4121 16.4398 -26.2243 -6.64856 17.4247 3.18572
lfemur -12.3734 17.9246 -18.8117
ltibia 38.249 0 0
lfoot -18.2914 -6.97592 0
ltoes 15.1279 0 0
rfemur -93.5065 -28.8921 43.5956
rtibia 112.604 0 0
rfoot 28.4763 19.5716 0
rtoes -9.54379 0 0
lowerback 14.969 -5.07997 -8.15522
upperback 4.40196 -7.94285 -1.78681
thorax -2.78602 -3.93155 3.95131
lowerneck -11.8495 -2.10862 -1.18349
upperneck 0.0635515 -2.82315 4.71751
head 2.17287 -1.26092 1.57347
lclavicle 6.78495e-14 5.62277e-15 0
lhumerus -36.698 -29.9633 92.2551
lradius 48.1109 0 0
lwrist 11.7802 0 0
lhand 19.6213 10.6587 0
lfingers 7.12502 0 0
lthumb 44.1577 34.2856 0
rclavicle 6.78495e-14 5.62277e-15 0
rhumerus -51.6185 -22.8078 -66.139
rradius 89.116 0 0
rwrist -17.1278 0 0
rhand -41.1251 -47.911 0
rfingers 7.12502 0 0
rthumb -14.0513 -283.116 0
146
root 7.3608 16.4362 -26.2153 -6.07562 18.2348 2.90849
lfemur -13.2103 18.657 -18.5006
ltibia 38.3942 0 0
lfoot -18.3009 -4.83015 0
ltoes 11.3105 0 0
rfemur -91.2774 -29.5507 40.9864
rtibia 114.318 0 0
rfoot 26.2728 20.4636 0
rtoes -15.1217 0 0
lowerback 14.55 -5.18722 -8.07001
upperback 4.21539 -8.03963 -1.69486
thorax -2.74729 -3.97754 3.98057
lowerneck -11.7837 -2.32931 -1.23882
upperneck 0.0121261 -3.11 4.79656
head 2.15562 -1.40272 1.59288
lclavicle 7.56802e-14 4.54365e-15 0
lhumerus -36.1969 -30.7741 92.6991
lradius 47.5191 0 0
lwrist 10.7975 0 0
lhand 20.9901 11.1448 0
lfingers 7.12502 0 0
lthumb 45.4353 34.3018 0
rclavicle 7.56802e-14 4.54365e-15 0
rhumerus -52.5088 -21.7145 -67.4785
rradius 89.931 0 0
rwrist -13.5086 0 0
rhand -40.4578 -48.6442 0
rfingers 7.12502 0 0
rthumb -13.4084 -335.324 0
